%TF.GenerationSoftware,KiCad,Pcbnew,(6.0.6)*%
%TF.CreationDate,2022-07-04T12:30:35-04:00*%
%TF.ProjectId,HP9825_ROM_Replacement,48503938-3235-45f5-924f-4d5f5265706c,rev?*%
%TF.SameCoordinates,Original*%
%TF.FileFunction,Soldermask,Bot*%
%TF.FilePolarity,Negative*%
%FSLAX46Y46*%
G04 Gerber Fmt 4.6, Leading zero omitted, Abs format (unit mm)*
G04 Created by KiCad (PCBNEW (6.0.6)) date 2022-07-04 12:30:35*
%MOMM*%
%LPD*%
G01*
G04 APERTURE LIST*
%ADD10R,1.700000X1.700000*%
%ADD11O,1.700000X1.700000*%
G04 APERTURE END LIST*
D10*
%TO.C,J1RD1*%
X167640000Y-96520000D03*
D11*
X167640000Y-99060000D03*
X167640000Y-101600000D03*
X167640000Y-104140000D03*
X167640000Y-106680000D03*
X167640000Y-109220000D03*
X167640000Y-111760000D03*
X167640000Y-114300000D03*
X167640000Y-116840000D03*
X167640000Y-119380000D03*
X167640000Y-121920000D03*
X167640000Y-124460000D03*
%TD*%
D10*
%TO.C,J1LD1*%
X162560000Y-96520000D03*
D11*
X162560000Y-99060000D03*
X162560000Y-101600000D03*
X162560000Y-104140000D03*
X162560000Y-106680000D03*
X162560000Y-109220000D03*
X162560000Y-111760000D03*
X162560000Y-114300000D03*
X162560000Y-116840000D03*
X162560000Y-119380000D03*
X162560000Y-121920000D03*
X162560000Y-124460000D03*
%TD*%
D10*
%TO.C,J4*%
X193598800Y-76235400D03*
D11*
X193598800Y-78775400D03*
X193598800Y-81315400D03*
X193598800Y-83855400D03*
%TD*%
D10*
%TO.C,J1RU1*%
X167640000Y-83820000D03*
D11*
X167640000Y-86360000D03*
X167640000Y-88900000D03*
X167640000Y-91440000D03*
%TD*%
D10*
%TO.C,J3*%
X157734000Y-83830000D03*
D11*
X157734000Y-86370000D03*
X157734000Y-88910000D03*
X157734000Y-91450000D03*
%TD*%
D10*
%TO.C,J1LU1*%
X162560000Y-81280000D03*
D11*
X162560000Y-83820000D03*
X162560000Y-86360000D03*
X162560000Y-88900000D03*
X162560000Y-91440000D03*
%TD*%
M02*
