M48
; DRILL file {KiCad (6.0.6)} date Mon Jul  4 12:31:07 2022
; FORMAT={-:-/ absolute / inch / decimal}
; #@! TF.CreationDate,2022-07-04T12:31:07-04:00
; #@! TF.GenerationSoftware,Kicad,Pcbnew,(6.0.6)
; #@! TF.FileFunction,MixedPlating,1,2
FMAT,2
INCH
; #@! TA.AperFunction,Plated,PTH,ViaDrill
T1C0.0157
; #@! TA.AperFunction,Plated,PTH,ComponentDrill
T2C0.0394
%
G90
G05
T1
X6.21Y-3.19
X6.22Y-3.7
X6.25Y-3.76
X6.26Y-3.1
X6.38Y-3.0
X6.39Y-3.7
X6.49Y-4.1
X6.49Y-4.2
X6.49Y-4.93
X6.5Y-3.01
X6.5Y-3.9
X6.5Y-4.0
X6.5Y-4.3
X6.5Y-4.41
X6.5Y-4.49
X6.51Y-4.15
X6.61Y-3.02
X6.675Y-4.03
X6.7Y-4.5
X6.73Y-3.295
X6.73Y-4.775
X6.75Y-3.085
X6.75Y-3.125
X6.75Y-3.26
X6.75Y-3.64
X6.75Y-4.45
X6.75Y-4.51
X6.76Y-3.85
X6.775Y-3.295
X6.7903Y-4.51
X6.82Y-3.85
X6.82Y-3.91
X6.825Y-4.0565
X6.83Y-3.65
X6.83Y-3.71
X6.83Y-4.005
X6.85Y-4.87
X6.87Y-4.39
X6.87Y-4.44
X6.87Y-4.65
X6.88Y-3.06
X6.915Y-3.785
X6.915Y-4.43
X6.915Y-4.47
X6.925Y-3.675
X6.925Y-4.65
X6.93Y-3.89
X6.93Y-4.5106
X6.935Y-3.73
X6.955Y-4.395
X7.0323Y-4.6677
X7.04Y-3.43
X7.0448Y-4.4952
X7.045Y-4.73
X7.05Y-3.79
X7.05Y-3.83
X7.05Y-4.0883
X7.05Y-4.77
X7.055Y-4.595
X7.06Y-3.1015
X7.06Y-3.965
X7.0679Y-4.43
X7.0717Y-4.6685
X7.0742Y-4.5245
X7.0973Y-4.6115
X7.1Y-3.952
X7.105Y-4.77
X7.125Y-4.4316
X7.1283Y-4.1397
X7.1415Y-3.88
X7.15Y-3.43
X7.15Y-4.011
X7.15Y-4.77
X7.16Y-3.965
X7.175Y-4.4716
X7.18Y-3.06
X7.18Y-3.25
X7.2Y-3.952
X7.2Y-4.76
X7.235Y-4.24
X7.24Y-3.44
X7.245Y-3.96
X7.25Y-4.011
X7.25Y-4.762
X7.265Y-4.195
X7.275Y-4.4716
X7.2965Y-4.2985
X7.3Y-3.951
X7.3Y-4.702
X7.325Y-3.84
X7.325Y-4.43
X7.33Y-3.745
X7.33Y-4.22
X7.335Y-4.485
X7.3352Y-3.8998
X7.34Y-3.515
X7.35Y-3.955
X7.35Y-4.01
X7.35Y-4.761
X7.365Y-3.84
X7.375Y-4.47
X7.385Y-3.5565
X7.3965Y-3.91
X7.4015Y-3.8
X7.415Y-3.99
X7.42Y-4.15
X7.42Y-4.21
X7.42Y-4.27
X7.45Y-3.635
X7.46Y-3.42
X7.47Y-4.64
X7.48Y-3.37
X7.51Y-3.42
X7.52Y-3.51
X7.52Y-4.05
X7.52Y-4.15
X7.52Y-4.26
X7.52Y-4.38
X7.52Y-4.82
X7.57Y-3.59
X7.57Y-4.64
X7.64Y-3.43
T2
X6.21Y-3.3004
X6.21Y-3.4004
X6.21Y-3.5004
X6.21Y-3.6004
X6.4Y-3.2
X6.4Y-3.3
X6.4Y-3.4
X6.4Y-3.5
X6.4Y-3.6
X6.4Y-3.8
X6.4Y-3.9
X6.4Y-4.0
X6.4Y-4.1
X6.4Y-4.2
X6.4Y-4.3
X6.4Y-4.4
X6.4Y-4.5
X6.4Y-4.6
X6.4Y-4.7
X6.4Y-4.8
X6.4Y-4.9
X6.6Y-3.3
X6.6Y-3.4
X6.6Y-3.5
X6.6Y-3.6
X6.6Y-3.8
X6.6Y-3.9
X6.6Y-4.0
X6.6Y-4.1
X6.6Y-4.2
X6.6Y-4.3
X6.6Y-4.4
X6.6Y-4.5
X6.6Y-4.6
X6.6Y-4.7
X6.6Y-4.8
X6.6Y-4.9
X7.622Y-3.0014
X7.622Y-3.1014
X7.622Y-3.2014
X7.622Y-3.3014
T0
M30
