%TF.GenerationSoftware,KiCad,Pcbnew,(6.0.6)*%
%TF.CreationDate,2022-07-04T12:30:35-04:00*%
%TF.ProjectId,HP9825_ROM_Replacement,48503938-3235-45f5-924f-4d5f5265706c,rev?*%
%TF.SameCoordinates,Original*%
%TF.FileFunction,Legend,Bot*%
%TF.FilePolarity,Positive*%
%FSLAX46Y46*%
G04 Gerber Fmt 4.6, Leading zero omitted, Abs format (unit mm)*
G04 Created by KiCad (PCBNEW (6.0.6)) date 2022-07-04 12:30:35*
%MOMM*%
%LPD*%
G01*
G04 APERTURE LIST*
%ADD10C,0.300000*%
G04 APERTURE END LIST*
D10*
X193019071Y-101318857D02*
X193019071Y-100604571D01*
X191519071Y-100604571D01*
X193019071Y-101818857D02*
X192019071Y-101818857D01*
X191519071Y-101818857D02*
X191590500Y-101747428D01*
X191661928Y-101818857D01*
X191590500Y-101890285D01*
X191519071Y-101818857D01*
X191661928Y-101818857D01*
X192019071Y-102318857D02*
X192019071Y-102890285D01*
X191519071Y-102533142D02*
X192804785Y-102533142D01*
X192947642Y-102604571D01*
X193019071Y-102747428D01*
X193019071Y-102890285D01*
X193019071Y-103390285D02*
X191519071Y-103390285D01*
X193019071Y-104033142D02*
X192233357Y-104033142D01*
X192090500Y-103961714D01*
X192019071Y-103818857D01*
X192019071Y-103604571D01*
X192090500Y-103461714D01*
X192161928Y-103390285D01*
X192947642Y-105390285D02*
X193019071Y-105247428D01*
X193019071Y-104961714D01*
X192947642Y-104818857D01*
X192876214Y-104747428D01*
X192733357Y-104676000D01*
X192304785Y-104676000D01*
X192161928Y-104747428D01*
X192090500Y-104818857D01*
X192019071Y-104961714D01*
X192019071Y-105247428D01*
X192090500Y-105390285D01*
X193019071Y-106247428D02*
X192947642Y-106104571D01*
X192876214Y-106033142D01*
X192733357Y-105961714D01*
X192304785Y-105961714D01*
X192161928Y-106033142D01*
X192090500Y-106104571D01*
X192019071Y-106247428D01*
X192019071Y-106461714D01*
X192090500Y-106604571D01*
X192161928Y-106676000D01*
X192304785Y-106747428D01*
X192733357Y-106747428D01*
X192876214Y-106676000D01*
X192947642Y-106604571D01*
X193019071Y-106461714D01*
X193019071Y-106247428D01*
X193019071Y-107390285D02*
X192019071Y-107390285D01*
X192304785Y-107390285D02*
X192161928Y-107461714D01*
X192090500Y-107533142D01*
X192019071Y-107676000D01*
X192019071Y-107818857D01*
X192947642Y-108890285D02*
X193019071Y-108747428D01*
X193019071Y-108461714D01*
X192947642Y-108318857D01*
X192804785Y-108247428D01*
X192233357Y-108247428D01*
X192090500Y-108318857D01*
X192019071Y-108461714D01*
X192019071Y-108747428D01*
X192090500Y-108890285D01*
X192233357Y-108961714D01*
X192376214Y-108961714D01*
X192519071Y-108247428D01*
X192876214Y-109604571D02*
X192947642Y-109676000D01*
X193019071Y-109604571D01*
X192947642Y-109533142D01*
X192876214Y-109604571D01*
X193019071Y-109604571D01*
X192947642Y-110961714D02*
X193019071Y-110818857D01*
X193019071Y-110533142D01*
X192947642Y-110390285D01*
X192876214Y-110318857D01*
X192733357Y-110247428D01*
X192304785Y-110247428D01*
X192161928Y-110318857D01*
X192090500Y-110390285D01*
X192019071Y-110533142D01*
X192019071Y-110818857D01*
X192090500Y-110961714D01*
X192019071Y-111604571D02*
X193019071Y-111604571D01*
X192161928Y-111604571D02*
X192090500Y-111676000D01*
X192019071Y-111818857D01*
X192019071Y-112033142D01*
X192090500Y-112176000D01*
X192233357Y-112247428D01*
X193019071Y-112247428D01*
X195434071Y-87854571D02*
X193934071Y-87854571D01*
X194648357Y-87854571D02*
X194648357Y-88711714D01*
X195434071Y-88711714D02*
X193934071Y-88711714D01*
X195434071Y-89426000D02*
X193934071Y-89426000D01*
X193934071Y-89997428D01*
X194005500Y-90140285D01*
X194076928Y-90211714D01*
X194219785Y-90283142D01*
X194434071Y-90283142D01*
X194576928Y-90211714D01*
X194648357Y-90140285D01*
X194719785Y-89997428D01*
X194719785Y-89426000D01*
X195434071Y-90997428D02*
X195434071Y-91283142D01*
X195362642Y-91426000D01*
X195291214Y-91497428D01*
X195076928Y-91640285D01*
X194791214Y-91711714D01*
X194219785Y-91711714D01*
X194076928Y-91640285D01*
X194005500Y-91568857D01*
X193934071Y-91426000D01*
X193934071Y-91140285D01*
X194005500Y-90997428D01*
X194076928Y-90926000D01*
X194219785Y-90854571D01*
X194576928Y-90854571D01*
X194719785Y-90926000D01*
X194791214Y-90997428D01*
X194862642Y-91140285D01*
X194862642Y-91426000D01*
X194791214Y-91568857D01*
X194719785Y-91640285D01*
X194576928Y-91711714D01*
X194576928Y-92568857D02*
X194505500Y-92426000D01*
X194434071Y-92354571D01*
X194291214Y-92283142D01*
X194219785Y-92283142D01*
X194076928Y-92354571D01*
X194005500Y-92426000D01*
X193934071Y-92568857D01*
X193934071Y-92854571D01*
X194005500Y-92997428D01*
X194076928Y-93068857D01*
X194219785Y-93140285D01*
X194291214Y-93140285D01*
X194434071Y-93068857D01*
X194505500Y-92997428D01*
X194576928Y-92854571D01*
X194576928Y-92568857D01*
X194648357Y-92426000D01*
X194719785Y-92354571D01*
X194862642Y-92283142D01*
X195148357Y-92283142D01*
X195291214Y-92354571D01*
X195362642Y-92426000D01*
X195434071Y-92568857D01*
X195434071Y-92854571D01*
X195362642Y-92997428D01*
X195291214Y-93068857D01*
X195148357Y-93140285D01*
X194862642Y-93140285D01*
X194719785Y-93068857D01*
X194648357Y-92997428D01*
X194576928Y-92854571D01*
X194076928Y-93711714D02*
X194005500Y-93783142D01*
X193934071Y-93926000D01*
X193934071Y-94283142D01*
X194005500Y-94426000D01*
X194076928Y-94497428D01*
X194219785Y-94568857D01*
X194362642Y-94568857D01*
X194576928Y-94497428D01*
X195434071Y-93640285D01*
X195434071Y-94568857D01*
X193934071Y-95926000D02*
X193934071Y-95211714D01*
X194648357Y-95140285D01*
X194576928Y-95211714D01*
X194505500Y-95354571D01*
X194505500Y-95711714D01*
X194576928Y-95854571D01*
X194648357Y-95926000D01*
X194791214Y-95997428D01*
X195148357Y-95997428D01*
X195291214Y-95926000D01*
X195362642Y-95854571D01*
X195434071Y-95711714D01*
X195434071Y-95354571D01*
X195362642Y-95211714D01*
X195291214Y-95140285D01*
X195434071Y-98640285D02*
X194719785Y-98140285D01*
X195434071Y-97783142D02*
X193934071Y-97783142D01*
X193934071Y-98354571D01*
X194005500Y-98497428D01*
X194076928Y-98568857D01*
X194219785Y-98640285D01*
X194434071Y-98640285D01*
X194576928Y-98568857D01*
X194648357Y-98497428D01*
X194719785Y-98354571D01*
X194719785Y-97783142D01*
X193934071Y-99568857D02*
X193934071Y-99854571D01*
X194005500Y-99997428D01*
X194148357Y-100140285D01*
X194434071Y-100211714D01*
X194934071Y-100211714D01*
X195219785Y-100140285D01*
X195362642Y-99997428D01*
X195434071Y-99854571D01*
X195434071Y-99568857D01*
X195362642Y-99426000D01*
X195219785Y-99283142D01*
X194934071Y-99211714D01*
X194434071Y-99211714D01*
X194148357Y-99283142D01*
X194005500Y-99426000D01*
X193934071Y-99568857D01*
X195434071Y-100854571D02*
X193934071Y-100854571D01*
X195005500Y-101354571D01*
X193934071Y-101854571D01*
X195434071Y-101854571D01*
X195434071Y-104568857D02*
X194719785Y-104068857D01*
X195434071Y-103711714D02*
X193934071Y-103711714D01*
X193934071Y-104283142D01*
X194005500Y-104426000D01*
X194076928Y-104497428D01*
X194219785Y-104568857D01*
X194434071Y-104568857D01*
X194576928Y-104497428D01*
X194648357Y-104426000D01*
X194719785Y-104283142D01*
X194719785Y-103711714D01*
X195362642Y-105783142D02*
X195434071Y-105640285D01*
X195434071Y-105354571D01*
X195362642Y-105211714D01*
X195219785Y-105140285D01*
X194648357Y-105140285D01*
X194505500Y-105211714D01*
X194434071Y-105354571D01*
X194434071Y-105640285D01*
X194505500Y-105783142D01*
X194648357Y-105854571D01*
X194791214Y-105854571D01*
X194934071Y-105140285D01*
X194434071Y-106497428D02*
X195934071Y-106497428D01*
X194505500Y-106497428D02*
X194434071Y-106640285D01*
X194434071Y-106926000D01*
X194505500Y-107068857D01*
X194576928Y-107140285D01*
X194719785Y-107211714D01*
X195148357Y-107211714D01*
X195291214Y-107140285D01*
X195362642Y-107068857D01*
X195434071Y-106926000D01*
X195434071Y-106640285D01*
X195362642Y-106497428D01*
X195434071Y-108068857D02*
X195362642Y-107926000D01*
X195219785Y-107854571D01*
X193934071Y-107854571D01*
X195434071Y-109283142D02*
X194648357Y-109283142D01*
X194505500Y-109211714D01*
X194434071Y-109068857D01*
X194434071Y-108783142D01*
X194505500Y-108640285D01*
X195362642Y-109283142D02*
X195434071Y-109140285D01*
X195434071Y-108783142D01*
X195362642Y-108640285D01*
X195219785Y-108568857D01*
X195076928Y-108568857D01*
X194934071Y-108640285D01*
X194862642Y-108783142D01*
X194862642Y-109140285D01*
X194791214Y-109283142D01*
X195362642Y-110640285D02*
X195434071Y-110497428D01*
X195434071Y-110211714D01*
X195362642Y-110068857D01*
X195291214Y-109997428D01*
X195148357Y-109926000D01*
X194719785Y-109926000D01*
X194576928Y-109997428D01*
X194505500Y-110068857D01*
X194434071Y-110211714D01*
X194434071Y-110497428D01*
X194505500Y-110640285D01*
X195362642Y-111854571D02*
X195434071Y-111711714D01*
X195434071Y-111426000D01*
X195362642Y-111283142D01*
X195219785Y-111211714D01*
X194648357Y-111211714D01*
X194505500Y-111283142D01*
X194434071Y-111426000D01*
X194434071Y-111711714D01*
X194505500Y-111854571D01*
X194648357Y-111926000D01*
X194791214Y-111926000D01*
X194934071Y-111211714D01*
X195434071Y-112568857D02*
X194434071Y-112568857D01*
X194576928Y-112568857D02*
X194505500Y-112640285D01*
X194434071Y-112783142D01*
X194434071Y-112997428D01*
X194505500Y-113140285D01*
X194648357Y-113211714D01*
X195434071Y-113211714D01*
X194648357Y-113211714D02*
X194505500Y-113283142D01*
X194434071Y-113426000D01*
X194434071Y-113640285D01*
X194505500Y-113783142D01*
X194648357Y-113854571D01*
X195434071Y-113854571D01*
X195362642Y-115140285D02*
X195434071Y-114997428D01*
X195434071Y-114711714D01*
X195362642Y-114568857D01*
X195219785Y-114497428D01*
X194648357Y-114497428D01*
X194505500Y-114568857D01*
X194434071Y-114711714D01*
X194434071Y-114997428D01*
X194505500Y-115140285D01*
X194648357Y-115211714D01*
X194791214Y-115211714D01*
X194934071Y-114497428D01*
X194434071Y-115854571D02*
X195434071Y-115854571D01*
X194576928Y-115854571D02*
X194505500Y-115926000D01*
X194434071Y-116068857D01*
X194434071Y-116283142D01*
X194505500Y-116426000D01*
X194648357Y-116497428D01*
X195434071Y-116497428D01*
X194434071Y-116997428D02*
X194434071Y-117568857D01*
X193934071Y-117211714D02*
X195219785Y-117211714D01*
X195362642Y-117283142D01*
X195434071Y-117426000D01*
X195434071Y-117568857D01*
X194648357Y-119711714D02*
X194719785Y-119926000D01*
X194791214Y-119997428D01*
X194934071Y-120068857D01*
X195148357Y-120068857D01*
X195291214Y-119997428D01*
X195362642Y-119926000D01*
X195434071Y-119783142D01*
X195434071Y-119211714D01*
X193934071Y-119211714D01*
X193934071Y-119711714D01*
X194005500Y-119854571D01*
X194076928Y-119926000D01*
X194219785Y-119997428D01*
X194362642Y-119997428D01*
X194505500Y-119926000D01*
X194576928Y-119854571D01*
X194648357Y-119711714D01*
X194648357Y-119211714D01*
X195434071Y-120926000D02*
X195362642Y-120783142D01*
X195291214Y-120711714D01*
X195148357Y-120640285D01*
X194719785Y-120640285D01*
X194576928Y-120711714D01*
X194505500Y-120783142D01*
X194434071Y-120926000D01*
X194434071Y-121140285D01*
X194505500Y-121283142D01*
X194576928Y-121354571D01*
X194719785Y-121426000D01*
X195148357Y-121426000D01*
X195291214Y-121354571D01*
X195362642Y-121283142D01*
X195434071Y-121140285D01*
X195434071Y-120926000D01*
X195434071Y-122711714D02*
X194648357Y-122711714D01*
X194505500Y-122640285D01*
X194434071Y-122497428D01*
X194434071Y-122211714D01*
X194505500Y-122068857D01*
X195362642Y-122711714D02*
X195434071Y-122568857D01*
X195434071Y-122211714D01*
X195362642Y-122068857D01*
X195219785Y-121997428D01*
X195076928Y-121997428D01*
X194934071Y-122068857D01*
X194862642Y-122211714D01*
X194862642Y-122568857D01*
X194791214Y-122711714D01*
X195434071Y-123426000D02*
X194434071Y-123426000D01*
X194719785Y-123426000D02*
X194576928Y-123497428D01*
X194505500Y-123568857D01*
X194434071Y-123711714D01*
X194434071Y-123854571D01*
X195434071Y-124997428D02*
X193934071Y-124997428D01*
X195362642Y-124997428D02*
X195434071Y-124854571D01*
X195434071Y-124568857D01*
X195362642Y-124426000D01*
X195291214Y-124354571D01*
X195148357Y-124283142D01*
X194719785Y-124283142D01*
X194576928Y-124354571D01*
X194505500Y-124426000D01*
X194434071Y-124568857D01*
X194434071Y-124854571D01*
X194505500Y-124997428D01*
M02*
