G04 #@! TF.GenerationSoftware,KiCad,Pcbnew,6.0.4-6f826c9f35~116~ubuntu20.04.1*
G04 #@! TF.CreationDate,2022-05-17T03:49:30-04:00*
G04 #@! TF.ProjectId,clonix-41-pcb,636c6f6e-6978-42d3-9431-2d7063622e6b,rev?*
G04 #@! TF.SameCoordinates,Original*
G04 #@! TF.FileFunction,Paste,Top*
G04 #@! TF.FilePolarity,Positive*
%FSLAX46Y46*%
G04 Gerber Fmt 4.6, Leading zero omitted, Abs format (unit mm)*
G04 Created by KiCad (PCBNEW 6.0.4-6f826c9f35~116~ubuntu20.04.1) date 2022-05-17 03:49:30*
%MOMM*%
%LPD*%
G01*
G04 APERTURE LIST*
G04 Aperture macros list*
%AMRoundRect*
0 Rectangle with rounded corners*
0 $1 Rounding radius*
0 $2 $3 $4 $5 $6 $7 $8 $9 X,Y pos of 4 corners*
0 Add a 4 corners polygon primitive as box body*
4,1,4,$2,$3,$4,$5,$6,$7,$8,$9,$2,$3,0*
0 Add four circle primitives for the rounded corners*
1,1,$1+$1,$2,$3*
1,1,$1+$1,$4,$5*
1,1,$1+$1,$6,$7*
1,1,$1+$1,$8,$9*
0 Add four rect primitives between the rounded corners*
20,1,$1+$1,$2,$3,$4,$5,0*
20,1,$1+$1,$4,$5,$6,$7,0*
20,1,$1+$1,$6,$7,$8,$9,0*
20,1,$1+$1,$8,$9,$2,$3,0*%
G04 Aperture macros list end*
%ADD10R,1.000000X1.800000*%
%ADD11RoundRect,0.135000X-0.135000X-0.185000X0.135000X-0.185000X0.135000X0.185000X-0.135000X0.185000X0*%
%ADD12RoundRect,0.140000X-0.140000X-0.170000X0.140000X-0.170000X0.140000X0.170000X-0.140000X0.170000X0*%
%ADD13RoundRect,0.135000X0.135000X0.185000X-0.135000X0.185000X-0.135000X-0.185000X0.135000X-0.185000X0*%
%ADD14RoundRect,0.250000X0.320000X-0.320000X0.320000X0.320000X-0.320000X0.320000X-0.320000X-0.320000X0*%
%ADD15RoundRect,0.075000X0.075000X-0.437500X0.075000X0.437500X-0.075000X0.437500X-0.075000X-0.437500X0*%
%ADD16RoundRect,0.075000X0.437500X-0.075000X0.437500X0.075000X-0.437500X0.075000X-0.437500X-0.075000X0*%
%ADD17RoundRect,0.140000X0.140000X0.170000X-0.140000X0.170000X-0.140000X-0.170000X0.140000X-0.170000X0*%
%ADD18RoundRect,0.135000X-0.185000X0.135000X-0.185000X-0.135000X0.185000X-0.135000X0.185000X0.135000X0*%
%ADD19RoundRect,0.140000X-0.170000X0.140000X-0.170000X-0.140000X0.170000X-0.140000X0.170000X0.140000X0*%
%ADD20R,0.650000X0.400000*%
%ADD21RoundRect,0.135000X0.185000X-0.135000X0.185000X0.135000X-0.185000X0.135000X-0.185000X-0.135000X0*%
%ADD22RoundRect,0.232500X-0.422500X0.232500X-0.422500X-0.232500X0.422500X-0.232500X0.422500X0.232500X0*%
%ADD23RoundRect,0.087500X-0.087500X0.387500X-0.087500X-0.387500X0.087500X-0.387500X0.087500X0.387500X0*%
G04 APERTURE END LIST*
D10*
G04 #@! TO.C,Y1*
X194594800Y-122707400D03*
X192094800Y-122707400D03*
G04 #@! TD*
D11*
G04 #@! TO.C,R4*
X189456600Y-121691400D03*
X190476600Y-121691400D03*
G04 #@! TD*
D12*
G04 #@! TO.C,C3*
X191544000Y-124663200D03*
X192504000Y-124663200D03*
G04 #@! TD*
D11*
G04 #@! TO.C,R3*
X187424600Y-121691400D03*
X188444600Y-121691400D03*
G04 #@! TD*
D13*
G04 #@! TO.C,R6*
X188395800Y-120345200D03*
X187375800Y-120345200D03*
G04 #@! TD*
D14*
G04 #@! TO.C,U2*
X189232400Y-114404000D03*
X190652400Y-115824000D03*
X192072400Y-117244000D03*
X189232400Y-115824000D03*
X192072400Y-114404000D03*
X189232400Y-117244000D03*
X190652400Y-114404000D03*
X192072400Y-115824000D03*
X190652400Y-117244000D03*
D15*
X188702400Y-118661500D03*
X189352400Y-118661500D03*
X190002400Y-118661500D03*
X190652400Y-118661500D03*
X191302400Y-118661500D03*
X191952400Y-118661500D03*
X192602400Y-118661500D03*
D16*
X193489900Y-117774000D03*
X193489900Y-117124000D03*
X193489900Y-116474000D03*
X193489900Y-115824000D03*
X193489900Y-115174000D03*
X193489900Y-114524000D03*
X193489900Y-113874000D03*
D15*
X192602400Y-112986500D03*
X191952400Y-112986500D03*
X191302400Y-112986500D03*
X190652400Y-112986500D03*
X190002400Y-112986500D03*
X189352400Y-112986500D03*
X188702400Y-112986500D03*
D16*
X187814900Y-113874000D03*
X187814900Y-114524000D03*
X187814900Y-115174000D03*
X187814900Y-115824000D03*
X187814900Y-116474000D03*
X187814900Y-117124000D03*
X187814900Y-117774000D03*
G04 #@! TD*
D17*
G04 #@! TO.C,C2*
X194434400Y-124663200D03*
X193474400Y-124663200D03*
G04 #@! TD*
D18*
G04 #@! TO.C,R2*
X194818000Y-112139000D03*
X194818000Y-113159000D03*
G04 #@! TD*
D19*
G04 #@! TO.C,C1*
X190271400Y-122760800D03*
X190271400Y-123720800D03*
G04 #@! TD*
D20*
G04 #@! TO.C,U1*
X187264000Y-123048000D03*
X187264000Y-123698000D03*
X187264000Y-124348000D03*
X189164000Y-124348000D03*
X189164000Y-123048000D03*
G04 #@! TD*
D12*
G04 #@! TO.C,C5*
X189489200Y-120345200D03*
X190449200Y-120345200D03*
G04 #@! TD*
D17*
G04 #@! TO.C,C4*
X192885000Y-111734600D03*
X191925000Y-111734600D03*
G04 #@! TD*
D21*
G04 #@! TO.C,R1*
X194818000Y-111279400D03*
X194818000Y-110259400D03*
G04 #@! TD*
D13*
G04 #@! TO.C,R5*
X192637600Y-120345200D03*
X191617600Y-120345200D03*
G04 #@! TD*
D22*
G04 #@! TO.C,U3*
X193412000Y-106709600D03*
X193412000Y-107859600D03*
X191792000Y-106709600D03*
X191792000Y-107859600D03*
D23*
X193802000Y-105384600D03*
X193002000Y-105384600D03*
X192202000Y-105384600D03*
X191402000Y-105384600D03*
X191402000Y-109184600D03*
X192202000Y-109184600D03*
X193002000Y-109184600D03*
X193802000Y-109184600D03*
G04 #@! TD*
M02*
