M48
INCH,TZ
T1C0.0157
%
G90
G05
T1
X72130Y-45900
X73000Y-45900
X73065Y-46822
X73240Y-47640
X73290Y-45120
X73380Y-45604
X73580Y-41160
X73610Y-47430
X73635Y-46467
X73640Y-46917
X73820Y-41880
X74020Y-47020
X74040Y-48700
X74200Y-41990
X74400Y-47900
X74470Y-46200
X74500Y-45030
X74510Y-45600
X74630Y-41230
X74910Y-48930
X74980Y-43230
X75040Y-47640
X75060Y-45560
X75140Y-43950
X75170Y-48390
X75310Y-43526
X75310Y-46360
X75380Y-41080
X75630Y-44960
X75710Y-46060
X75780Y-47680
X75980Y-49240
X76260Y-43710
X76610Y-44960
X76757Y-45437
T0
M30
